<svg xmlns="http://www.w3.org/2000/svg" viewBox="0 0 350 149.29"><title>BANYAN Logo WB</title><g id="Layer_2" data-name="Layer 2"><g id="Layer_1-2" data-name="Layer 1"><g id="BANYAN_Logo_WB" data-name="BANYAN Logo WB"><g id="BANYAN_Logo_BW" data-name="BANYAN Logo BW"><g id="BANYAN"><path d="M35,126.66q7.6,2.55,7.6,10.53a11.6,11.6,0,0,1-2,6.8,10.79,10.79,0,0,1-5.43,4.11,30.77,30.77,0,0,1-9.74,1.19H0v-1a3,3,0,0,0,1.63-.86A3.25,3.25,0,0,0,2,145.53v-36a3.37,3.37,0,0,0-.41-1.9A2.79,2.79,0,0,0,0,106.74v-1H26a27.82,27.82,0,0,1,6.33.6,12.46,12.46,0,0,1,4.43,2,10.5,10.5,0,0,1,4.4,9.07Q41.15,123.69,35,126.66ZM7.06,124.52H23.85a46.8,46.8,0,0,0,5.35-.22,13.28,13.28,0,0,0,3.27-.83,6.05,6.05,0,0,0,2.87-2.37,6.69,6.69,0,0,0,1-3.7,6.8,6.8,0,0,0-1.82-4.79,7.65,7.65,0,0,0-3.81-2.15,31.75,31.75,0,0,0-7.2-.59H7.06Zm0,20.62H24.55a47.1,47.1,0,0,0,5.59-.24,12,12,0,0,0,3.38-.94,6.7,6.7,0,0,0,3-2.68,8.51,8.51,0,0,0-.82-9.48,7.84,7.84,0,0,0-4-2.48,31.54,31.54,0,0,0-7.47-.65H7.06Z"/><path d="M94,137.07H70.68l-3.83,8.27a4.84,4.84,0,0,0-.54,1.66c0,.63.63,1.06,1.89,1.27v1H58.48v-1a3.43,3.43,0,0,0,2-1,13,13,0,0,0,1.8-3.19l16-34.45a5.22,5.22,0,0,0,.57-1.69c0-.55-.52-1-1.56-1.24v-1h10.6v1c-1,.34-1.57.79-1.57,1.34a5.41,5.41,0,0,0,.58,1.59l15.29,33.21a28.64,28.64,0,0,0,2.23,4.31,4.78,4.78,0,0,0,2.37,1.08v1H96.4v-1c1.24-.17,1.86-.64,1.86-1.4a6,6,0,0,0-.7-2Zm-1.84-4.15-9.81-21.54-9.81,21.54Z"/><path d="M131,111.24v34.29a3.16,3.16,0,0,0,.41,1.86,2.86,2.86,0,0,0,1.63.88v1h-8.65v-1a2.9,2.9,0,0,0,1.64-.86,3.26,3.26,0,0,0,.4-1.88v-36a3.27,3.27,0,0,0-.42-1.9,2.73,2.73,0,0,0-1.62-.84v-1h12.52v1c-1,.34-1.5.82-1.5,1.43q0,.64,1.5,2.4l26.27,30.71v-31.8a3.27,3.27,0,0,0-.42-1.9,2.79,2.79,0,0,0-1.63-.84v-1h8.65v1a2.76,2.76,0,0,0-1.62.84,3.27,3.27,0,0,0-.42,1.9v36.05a3.16,3.16,0,0,0,.42,1.88,2.94,2.94,0,0,0,1.62.86v1H159.69v-1c1-.25,1.47-.69,1.47-1.31a4.74,4.74,0,0,0-1.34-2.3Z"/><path d="M211.6,130v15.52a3.17,3.17,0,0,0,.41,1.87,2.86,2.86,0,0,0,1.63.88v1h-9.1v-1a3,3,0,0,0,1.63-.86,3.18,3.18,0,0,0,.41-1.89V130L192.5,111.55a36.47,36.47,0,0,0-3.17-3.79,4.29,4.29,0,0,0-2.19-1v-1H198.2v1c-1,.25-1.5.67-1.5,1.24a6.25,6.25,0,0,0,1.5,3.1l11.07,15.06,11-15.57a6.62,6.62,0,0,0,1.4-2.68c0-.54-.47-.92-1.4-1.15v-1h10.29v1a5,5,0,0,0-2.68,1.4,36.28,36.28,0,0,0-3,3.41Z"/><path d="M274.24,137.07H250.93l-3.84,8.27a4.84,4.84,0,0,0-.54,1.66c0,.63.63,1.06,1.89,1.27v1h-9.72v-1a3.46,3.46,0,0,0,2-1,13.73,13.73,0,0,0,1.8-3.19l16-34.45a5.07,5.07,0,0,0,.58-1.69c0-.55-.52-1-1.57-1.24v-1h10.6v1c-1,.34-1.56.79-1.56,1.34a5.58,5.58,0,0,0,.57,1.59l15.29,33.21a28.25,28.25,0,0,0,2.24,4.31,4.73,4.73,0,0,0,2.36,1.08v1H276.65v-1c1.24-.17,1.86-.64,1.86-1.4a6.08,6.08,0,0,0-.71-2Zm-1.85-4.15-9.81-21.54-9.8,21.54Z"/><path d="M311.21,111.24v34.29a3.15,3.15,0,0,0,.42,1.86,2.79,2.79,0,0,0,1.62.88v1H304.6v-1a2.94,2.94,0,0,0,1.65-.86,3.34,3.34,0,0,0,.4-1.88v-36a3.27,3.27,0,0,0-.42-1.9,2.79,2.79,0,0,0-1.63-.84v-1h12.52v1c-1,.34-1.5.82-1.5,1.43q0,.64,1.5,2.4l26.27,30.71v-31.8a3.37,3.37,0,0,0-.41-1.9,2.79,2.79,0,0,0-1.63-.84v-1H350v1a2.79,2.79,0,0,0-1.63.84,3.37,3.37,0,0,0-.41,1.9v36.05a3.25,3.25,0,0,0,.41,1.88,3,3,0,0,0,1.63.86v1H339.94v-1c1-.25,1.47-.69,1.47-1.31a4.83,4.83,0,0,0-1.34-2.3Z"/></g><g id="BY"><path d="M210.61,61.16a4.62,4.62,0,0,1-.59-2.67V36.32l.17-.59L190.9,9.32q-2.15-2.93-2.14-4.42c0-.82.71-1.41,2.14-1.78V1.66H129.43V3.12a4,4,0,0,1,2.33,1.21A4.72,4.72,0,0,1,132.34,7V58.5a4.64,4.64,0,0,1-.58,2.69,4.34,4.34,0,0,1-2.33,1.23v1.45h36.23a67.29,67.29,0,0,0,8-.42,28.21,28.21,0,0,0,5.92-1.29,15.21,15.21,0,0,0,7.75-5.85,16.55,16.55,0,0,0,2.92-9.71q0-11.39-10.85-15a16.3,16.3,0,0,0,6-4.73L181,21.11a8.74,8.74,0,0,1-1.1,2.52c-3.29,5.13-9.91,4.88-16.4,4.88h-24V7.59H163c11.28-.21,18,.2,22.55,5.58l17.29,23.15V58.49a4.65,4.65,0,0,1-.59,2.7A4.26,4.26,0,0,1,200,62.42v1.45h13V62.42A4.16,4.16,0,0,1,210.61,61.16ZM164,34.43a50.09,50.09,0,0,1,9.62.72c.35.07.74.13,1.05.22a11.12,11.12,0,0,1,5.69,3.53,11.28,11.28,0,0,1,2.69,7.61,11.43,11.43,0,0,1-1.52,5.93,9.57,9.57,0,0,1-4.26,3.82,17.41,17.41,0,0,1-3.65,1c-.41.08-.76.27-1.19.33a69,69,0,0,1-8,.34h-25V34.43Z"/><path d="M238.72,0c-17.75.64-21.9,10.89-21.44,19.05C222.59,11.13,228.17,8,228.17,8s-6.78,7.72-8.52,13.27c7.64.1,13.39-3.17,15.27-10.89C235.9,6.36,236.15,2.12,238.72,0Z"/></g></g></g></g></g></svg>