<svg xmlns="http://www.w3.org/2000/svg" viewBox="0 0 250 146.11"><defs><style>.cls-1{fill:#6d6e70;}.cls-2{fill:#8bc53f;}</style></defs><title>BY Gray</title><g id="Layer_2" data-name="Layer 2"><g id="Layer_1-2" data-name="Layer 1"><g id="BY_Gray" data-name="BY Gray"><g id="BY_Gray-2" data-name="BY Gray"><path class="cls-1" d="M185.71,139.9c-.9-1.21-1.36-3.25-1.36-6.1V83.09l.4-1.37L140.61,21.31c-3.26-4.44-4.9-7.82-4.9-10.1,0-1.88,1.64-3.24,4.9-4.07V3.8H0V7.14c2.65.63,4.42,1.55,5.33,2.76s1.34,3.29,1.34,6.2V133.81c0,2.91-.44,5-1.34,6.15S2.65,142.08,0,142.77v3.34H82.88a151.38,151.38,0,0,0,18.25-1,65.75,65.75,0,0,0,13.55-2.93,35.1,35.1,0,0,0,17.73-13.39,38,38,0,0,0,6.67-22.21q0-26.07-24.81-34.41a37.31,37.31,0,0,0,13.64-10.82l-10-13.08a20.76,20.76,0,0,1-2.52,5.76C107.87,65.79,92.74,65.2,77.88,65.21H23V17.36h53.8c25.8-.48,41.27.45,51.57,12.78l39.57,53V133.8c0,2.92-.46,5-1.36,6.16s-2.66,2.12-5.31,2.81v3.34H191v-3.34C188.37,142.08,186.61,141.12,185.71,139.9ZM79.13,78.76c9.51,0,16.76.57,22,1.64.81.16,1.7.31,2.4.5a25.44,25.44,0,0,1,13,8.08,25.87,25.87,0,0,1,6.15,17.4,26,26,0,0,1-3.49,13.56,21.76,21.76,0,0,1-9.74,8.75,39,39,0,0,1-8.35,2.33c-.94.19-1.74.62-2.71.75a154.15,154.15,0,0,1-18.25.78H23V78.76Z"/><path class="cls-2" d="M250,0c-40.6,1.46-50.09,24.9-49,43.56,12.14-18.11,24.91-25.3,24.91-25.3S210.36,35.91,206.38,48.6c17.47.23,30.63-7.23,34.94-24.91C243.54,14.55,244.11,4.84,250,0Z"/></g></g></g></g></svg>